<svg width="24" height="24" viewBox="0 0 24 24" fill="none" xmlns="http://www.w3.org/2000/svg">
<path fill-rule="evenodd" clip-rule="evenodd" d="M12 0C18.6168 0 24 5.3832 24 12C24 18.6168 18.6168 24 12 24C5.3832 24 0 18.6168 0 12C0 5.3832 5.3832 0 12 0ZM12 1.8C6.3756 1.8 1.8 6.3756 1.8 12C1.8 17.6244 6.3756 22.2 12 22.2C17.6244 22.2 22.2 17.6244 22.2 12C22.2 6.3756 17.6244 1.8 12 1.8ZM14.3681 7.19964C14.7197 7.55244 14.7173 8.12244 14.3657 8.47284L10.8233 11.9996L14.3657 15.5276C14.7173 15.878 14.7197 16.4468 14.3681 16.7996C14.1929 16.9772 13.9613 17.0648 13.7309 17.0648C13.5017 17.0648 13.2713 16.9772 13.0961 16.802L8.91168 12.638C8.74248 12.4688 8.64768 12.2396 8.64768 11.9996C8.64768 11.7608 8.74248 11.5316 8.91168 11.3624L13.0961 7.19724C13.4477 6.84684 14.0165 6.84684 14.3681 7.19964Z" fill="black"/>
</svg>
