<svg width="23" height="22" viewBox="0 0 23 22" fill="none" xmlns="http://www.w3.org/2000/svg">
<path fill-rule="evenodd" clip-rule="evenodd" d="M5.75026 18.914C6.5469 18.914 7.19515 19.5611 7.19515 20.3577C7.19515 21.1544 6.5469 21.8026 5.75026 21.8026C4.95362 21.8026 4.30649 21.1544 4.30649 20.3577C4.30649 19.5611 4.95362 18.914 5.75026 18.914ZM18.3362 18.914C19.134 18.914 19.7822 19.5611 19.7822 20.3577C19.7822 21.1544 19.134 21.8026 18.3362 21.8026C17.5396 21.8026 16.8924 21.1544 16.8924 20.3577C16.8924 19.5611 17.5396 18.914 18.3362 18.914ZM0.979562 0.0105851L3.30031 0.412253C3.67409 0.478082 3.9586 0.788259 3.99096 1.16761L4.25316 4.29281L5.22815 4.29323C5.38725 4.2933 5.54467 4.29337 5.70041 4.29344L7.49041 4.29429C7.63309 4.29437 7.77417 4.29444 7.91368 4.29451L9.8901 4.29559C10.0143 4.29567 10.1369 4.29574 10.2582 4.29581L11.6432 4.2967C11.7529 4.29677 11.8612 4.29684 11.9682 4.29692L13.1863 4.29782C13.2825 4.29789 13.3774 4.29797 13.471 4.29804L14.5331 4.29895C14.6166 4.29903 14.699 4.29911 14.7801 4.29918L15.4782 4.29988C15.5522 4.29996 15.6252 4.30003 15.6969 4.30011L16.5054 4.30105C16.5684 4.30113 16.6304 4.30121 16.6914 4.30129L17.3739 4.30224C17.4269 4.30232 17.4788 4.3024 17.5298 4.30248L17.9636 4.3032C18.0091 4.30329 18.0536 4.30337 18.0973 4.30345L18.5806 4.30443C18.6175 4.30451 18.6537 4.30459 18.689 4.30467L18.9864 4.30542C19.0172 4.3055 19.0473 4.30558 19.0766 4.30567L19.3954 4.30667C19.4193 4.30676 19.4426 4.30684 19.4652 4.30693L19.6524 4.30769C19.6714 4.30777 19.6899 4.30786 19.7078 4.30795L19.8972 4.30898C19.9109 4.30906 19.9242 4.30915 19.937 4.30924L20.0402 4.31002C20.0504 4.31011 20.0602 4.31019 20.0696 4.31028L20.1439 4.31107C20.151 4.31116 20.1579 4.31125 20.1644 4.31134L20.215 4.31214C20.2197 4.31223 20.2242 4.31232 20.2285 4.31241L20.2605 4.31322C20.2634 4.31331 20.2661 4.3134 20.2686 4.31349L20.2918 4.31458L20.2958 4.31486C20.3066 4.31587 20.3098 4.31624 20.3098 4.31624C20.9313 4.40662 21.478 4.7313 21.8507 5.23115C22.2233 5.72989 22.3795 6.34467 22.2903 6.96056L21.2314 14.2776C21.0317 15.6701 19.8223 16.72 18.4164 16.72H6.23137C4.76194 16.72 3.51788 15.573 3.3985 14.1058L2.37647 1.95086L0.695047 1.66077C0.238708 1.58044 -0.0658902 1.14864 0.0122119 0.692305C0.0925455 0.235965 0.533265 -0.0608225 0.979562 0.0105851ZM5.00431 5.96681L4.39374 5.96643L5.06653 13.9685C5.11563 14.5844 5.61883 15.0464 6.2336 15.0464H18.4142C18.9955 15.0464 19.492 14.6134 19.5746 14.0388L20.6345 6.72067C20.6591 6.54662 20.6155 6.37256 20.5096 6.23198C20.4047 6.09028 20.2507 5.99879 20.0766 5.97424C20.0686 5.97455 20.0493 5.97483 20.0194 5.97508L19.898 5.97578C19.8726 5.97588 19.8447 5.97598 19.8143 5.97607L19.1823 5.97703C19.1289 5.97707 19.0735 5.9771 19.016 5.97713L17.5298 5.97707C17.4469 5.97704 17.3624 5.977 17.2764 5.97697L15.5804 5.97594C15.4788 5.97586 15.376 5.97578 15.2723 5.97571L14.3126 5.97494C14.2033 5.97485 14.0931 5.97475 13.9822 5.97466L12.9657 5.97376C12.8509 5.97366 12.7356 5.97356 12.6197 5.97345L11.9195 5.97281C11.802 5.9727 11.6842 5.97259 11.5661 5.97248L10.4975 5.97148C10.3784 5.97137 10.2592 5.97126 10.1399 5.97115L9.42515 5.97048C9.3062 5.97037 9.18738 5.97026 9.06876 5.97015L8.36003 5.96951C8.24249 5.9694 8.1253 5.9693 8.00851 5.9692L6.9703 5.9683C6.85658 5.96821 6.74347 5.96811 6.63105 5.96802L5.31902 5.96702C5.21314 5.96695 5.10821 5.96688 5.00431 5.96681ZM16.6222 8.41694C17.0841 8.41694 17.459 8.79183 17.459 9.25375C17.459 9.71566 17.0841 10.0906 16.6222 10.0906H13.5293C13.0663 10.0906 12.6925 9.71566 12.6925 9.25375C12.6925 8.79183 13.0663 8.41694 13.5293 8.41694H16.6222Z" fill="black"/>
</svg>
