<svg width="16" height="15" viewBox="0 0 16 15" fill="none" xmlns="http://www.w3.org/2000/svg">
<path d="M4.95783 0.000122102C5.45519 0.0152479 5.93676 0.102089 6.40333 0.26077H6.44991C6.48148 0.27577 6.50517 0.292349 6.52096 0.307348C6.69543 0.3634 6.86043 0.426557 7.01832 0.513398L7.31831 0.647606C7.43673 0.710763 7.57884 0.828392 7.65778 0.876549C7.73673 0.923128 7.82357 0.971285 7.89462 1.02576C8.77171 0.355505 9.83669 -0.00764645 10.934 0.000122102C11.4322 0.000122102 11.9296 0.0705102 12.4024 0.229192C15.3163 1.17654 16.3663 4.37386 15.4892 7.16855C14.9919 8.59668 14.1787 9.90008 13.1137 10.9651C11.5893 12.4414 9.91643 13.7519 8.11567 14.8808L7.9183 15L7.71304 14.8729C5.90597 13.7519 4.22363 12.4414 2.68497 10.9572C1.62709 9.89219 0.813157 8.59668 0.307903 7.16855C-0.584188 4.37386 0.465795 1.17654 3.41127 0.212613C3.64022 0.133667 3.87626 0.0784048 4.1131 0.0476158H4.20784C4.42968 0.0152479 4.64994 0.000122102 4.87099 0.000122102H4.95783ZM11.9919 2.49494C11.6682 2.38363 11.313 2.5581 11.1946 2.88967C11.084 3.22125 11.2577 3.5844 11.5893 3.70203C12.0953 3.8915 12.434 4.38965 12.434 4.94148V4.96596C12.419 5.14674 12.4735 5.32121 12.584 5.45542C12.6945 5.58963 12.8603 5.66779 13.034 5.68436C13.3577 5.67568 13.634 5.41595 13.6577 5.08358V4.98964C13.6814 3.8836 13.0111 2.88178 11.9919 2.49494Z" fill="#F86767"/>
</svg>
