<svg width="20" height="19" viewBox="0 0 20 19" fill="none" xmlns="http://www.w3.org/2000/svg">
<path fill-rule="evenodd" clip-rule="evenodd" d="M9.68871 1.40618C11.2279 0.433041 13.2726 0.164198 15.0391 0.730282C18.8814 1.96942 20.0742 6.15825 19.0073 9.49133C17.3611 14.7262 10.3305 18.631 10.0323 18.7948C9.92631 18.8535 9.80893 18.8828 9.69155 18.8828C9.57417 18.8828 9.45773 18.8544 9.35171 18.7967C9.05541 18.6348 2.07592 14.7877 0.374824 9.49228L0.373877 9.49133C-0.69392 6.15731 0.495046 1.96753 4.33363 0.730282C6.13601 0.147159 8.10026 0.403695 9.68871 1.40618ZM4.76908 2.08207C1.66319 3.0836 0.883164 6.42426 1.72661 9.05872C3.05378 13.1879 8.29716 16.5267 9.6906 17.3531C11.0888 16.5182 16.37 13.1425 17.6546 9.06251C18.498 6.4252 17.7152 3.08455 14.6046 2.08207C13.0975 1.59834 11.3396 1.89274 10.1261 2.8318C9.87235 3.0268 9.52021 3.03059 9.26462 2.83748C7.9791 1.87097 6.29978 1.58793 4.76908 2.08207ZM13.6958 3.96198C14.986 4.37944 15.8901 5.52202 16.0008 6.87286C16.0321 7.26382 15.7415 7.6065 15.3505 7.63774C15.3306 7.63963 15.3117 7.64058 15.2918 7.64058C14.9255 7.64058 14.615 7.35943 14.5847 6.98835C14.5222 6.21022 14.0016 5.55326 13.2603 5.31377C12.8864 5.1926 12.6819 4.79217 12.8022 4.42015C12.9243 4.04718 13.3209 3.8446 13.6958 3.96198Z" fill="black"/>
</svg>
